<svg width="48" height="48" viewBox="0 0 48 48" fill="none" xmlns="http://www.w3.org/2000/svg">
<path d="M19 22C18.448 22 18 21.552 18 21C18 18.57 16.458 16 15 16C13.542 16 12 18.57 12 21C12 21.552 11.552 22 11 22C10.448 22 10 21.552 10 21C10 17.696 12.138 14 15 14C17.862 14 20 17.696 20 21C20 21.552 19.552 22 19 22ZM38 21C38 17.696 35.862 14 33 14C30.138 14 28 17.696 28 21C28 21.552 28.448 22 29 22C29.552 22 30 21.552 30 21C30 18.57 31.542 16 33 16C34.458 16 36 18.57 36 21C36 21.552 36.448 22 37 22C37.552 22 38 21.552 38 21ZM48 24C48 10.766 37.234 0 24 0C10.766 0 0 10.766 0 24C0 37.234 10.766 48 24 48C37.234 48 48 37.234 48 24ZM46 24C46 36.13 36.13 46 24 46C11.87 46 2 36.13 2 24C2 11.87 11.87 2 24 2C36.13 2 46 11.87 46 24ZM35.63 31.776C36.058 31.428 36.122 30.8 35.776 30.372C35.428 29.946 34.798 29.88 34.37 30.224C34.324 30.262 29.63 34.002 23.998 34.002C18.366 34.002 13.674 30.262 13.626 30.224C13.194 29.88 12.57 29.946 12.22 30.372C11.874 30.8 11.938 31.428 12.366 31.776C12.578 31.95 17.642 36 23.996 36C30.35 36 35.414 31.95 35.626 31.776H35.63Z" fill="#B0B0B0"/>
</svg>
