<svg width="49" height="48" viewBox="0 0 49 48" fill="none" xmlns="http://www.w3.org/2000/svg">
<path d="M35.7292 22C28.4118 22 22.4583 27.832 22.4583 35C22.4583 42.168 28.4118 48 35.7292 48C43.0465 48 49 42.168 49 35C49 27.832 43.0465 22 35.7292 22ZM35.7292 46C29.5388 46 24.5 41.066 24.5 35C24.5 28.934 29.5388 24 35.7292 24C41.9195 24 46.9583 28.934 46.9583 35C46.9583 41.066 41.9195 46 35.7292 46ZM38.4936 36.292C38.8917 36.682 38.8917 37.316 38.4936 37.706C38.2935 37.902 38.0322 37.998 37.7708 37.998C37.5095 37.998 37.2482 37.9 37.0481 37.706L35.0064 35.706C34.8145 35.518 34.7083 35.264 34.7083 34.998V30.998C34.7083 30.446 35.1657 29.998 35.7292 29.998C36.2927 29.998 36.75 30.446 36.75 30.998V34.584L38.4936 36.292ZM39.8125 8H35.672C35.1616 3.506 31.262 0 26.5417 0H21.4375C16.7172 0 12.8155 3.506 12.3072 8H9.1875C4.12213 8 0 12.038 0 17V39C0 43.962 4.12213 48 9.1875 48H21.4375C22.001 48 22.4583 47.552 22.4583 47C22.4583 46.448 22.001 46 21.4375 46H9.1875C5.24708 46 2.04167 42.86 2.04167 39V26H19.3958C19.9593 26 20.4167 25.552 20.4167 25C20.4167 24.448 19.9593 24 19.3958 24H2.04167V17C2.04167 13.14 5.24708 10 9.1875 10H39.8125C43.7529 10 46.9583 13.14 46.9583 17V21C46.9583 21.552 47.4157 22 47.9792 22C48.5427 22 49 21.552 49 21V17C49 12.038 44.8779 8 39.8125 8ZM21.4375 2H26.5417C30.135 2 33.1179 4.612 33.614 8H14.3652C14.8613 4.612 17.8442 2 21.4375 2Z" fill="#B0B0B0"/>
</svg>
