<svg width="32" height="48" viewBox="0 0 32 48" fill="none" xmlns="http://www.w3.org/2000/svg">
<path d="M15.4686 47.998C14.9789 47.998 14.4811 47.89 13.9993 47.668C12.428 46.942 11.6643 45.2721 12.1401 43.6082L15.6486 31.9987H5.00124C3.40394 31.9987 1.94058 31.2627 0.988999 29.9788C0.037417 28.6948 -0.24446 27.0809 0.217338 25.5509L6.25869 3.57585C6.9084 1.42794 8.83155 0 11.0486 0H19.7907C21.1661 0 22.4556 0.675972 23.2392 1.80592C24.0229 2.93588 24.2028 4.38182 23.721 5.66976L19.4029 17.9993H26.9896C28.8728 17.9993 30.524 18.9932 31.4056 20.6591C32.2873 22.3251 32.1833 24.247 31.1258 25.8069L18.3114 46.4301C17.6337 47.448 16.5762 47.998 15.4686 47.998ZM11.0506 1.99992C9.71917 1.99992 8.56567 2.85588 8.17984 4.13183L2.13849 26.1069C1.85462 27.0489 2.02254 28.0168 2.59429 28.7868C3.16604 29.5568 4.04366 29.9988 5.00324 29.9988H16.996C17.3118 29.9988 17.6097 30.1487 17.7976 30.4027C17.9855 30.6567 18.0435 30.9847 17.9516 31.2867L14.0593 44.1702C13.8154 45.0261 14.3012 45.6021 14.8409 45.8501C15.3787 46.0981 16.1323 46.0981 16.6321 45.3441L29.4505 24.715C30.1062 23.747 30.1702 22.5931 29.6404 21.5931C29.1106 20.5931 28.1211 19.9972 26.9896 19.9972H17.9935C17.6697 19.9972 17.3658 19.8392 17.1779 19.5752C16.99 19.3112 16.942 18.9732 17.0499 18.6652L21.8418 4.98579C22.1057 4.27982 22.0138 3.54385 21.5959 2.94388C21.1801 2.3419 20.5204 1.99792 19.7907 1.99792H11.0486L11.0506 1.99992Z" fill="#B0B0B0"/>
</svg>
