<svg width="36" height="48" viewBox="0 0 36 48" fill="none" xmlns="http://www.w3.org/2000/svg">
<path d="M27 24H21C20.448 24 20 23.552 20 23C20 22.448 20.448 22 21 22H27C27.552 22 28 22.448 28 23C28 23.552 27.552 24 27 24ZM28 33C28 32.448 27.552 32 27 32H17C16.448 32 16 32.448 16 33C16 33.552 16.448 34 17 34H27C27.552 34 28 33.552 28 33ZM36 39V13C36 8.038 31.962 4 27 4H25.9C25.436 1.72 23.416 0 21 0H15C12.584 0 10.566 1.72 10.1 4H9C4.038 4 0 8.038 0 13V39C0 43.962 4.038 48 9 48H27C31.962 48 36 43.962 36 39ZM11 6C11.552 6 12 5.552 12 5C12 3.346 13.346 2 15 2H21C22.654 2 24 3.346 24 5C24 5.552 24.448 6 25 6H27C30.86 6 34 9.14 34 13V39C34 42.86 30.86 46 27 46H9C5.14 46 2 42.86 2 39V13C2 9.14 5.14 6 9 6H11ZM10 31C8.896 31 8 31.896 8 33C8 34.104 8.896 35 10 35C11.104 35 12 34.104 12 33C12 31.896 11.104 31 10 31ZM12.976 23.324L18.7 17.714C19.094 17.328 19.1 16.694 18.714 16.3C18.328 15.906 17.694 15.898 17.3 16.286L11.57 21.902C11.458 22.014 11.21 22.012 11.086 21.89L7.528 18.448C7.132 18.064 6.498 18.074 6.114 18.472C5.73 18.868 5.74 19.502 6.138 19.886L9.684 23.316C10.124 23.756 10.71 24 11.334 24C11.958 24 12.544 23.756 12.978 23.324H12.976Z" fill="#B0B0B0"/>
</svg>
