<svg width="18" height="33" viewBox="0 0 18 33" fill="none" xmlns="http://www.w3.org/2000/svg">
<path d="M16.5762 2.72396C16.7224 2.56983 16.8367 2.38851 16.9126 2.19038C16.9885 1.99224 17.0244 1.78115 17.0184 1.56918C17.0124 1.3572 16.9645 1.14847 16.8775 0.954927C16.7905 0.761379 16.6661 0.586795 16.5113 0.441143C16.3566 0.295492 16.1746 0.181625 15.9757 0.106045C15.7768 0.0304639 15.5648 -0.0053508 15.352 0.000645778C15.1392 0.00664236 14.9297 0.0543325 14.7354 0.140993C14.5411 0.227654 14.3658 0.351589 14.2196 0.505721L0.443026 15.0357C0.158522 15.3354 0 15.7323 0 16.1448C0 16.5573 0.158522 16.9541 0.443026 17.2539L14.2196 31.7854C14.3648 31.9429 14.5401 32.0701 14.7351 32.1596C14.9301 32.2491 15.141 32.2991 15.3556 32.3067C15.5702 32.3143 15.7842 32.2793 15.9851 32.2038C16.186 32.1284 16.3698 32.0139 16.5259 31.8671C16.682 31.7202 16.8073 31.5439 16.8945 31.3485C16.9816 31.153 17.0289 30.9422 17.0336 30.7284C17.0382 30.5146 17.0002 30.302 16.9217 30.1029C16.8432 29.9038 16.7257 29.7223 16.5762 29.5688L3.84989 16.1448L16.5762 2.72396Z" fill="black"/>
</svg>
