<svg width="26" height="26" viewBox="0 0 26 26" fill="none" xmlns="http://www.w3.org/2000/svg">
<path d="M12.9209 8.37329C11.7093 8.37329 10.5473 8.8546 9.69057 9.71132C8.83384 10.5681 8.35254 11.73 8.35254 12.9416C8.35254 14.1532 8.83384 15.3152 9.69057 16.1719C10.5473 17.0286 11.7093 17.51 12.9209 17.51C14.1325 17.51 15.2944 17.0286 16.1512 16.1719C17.0079 15.3152 17.4892 14.1532 17.4892 12.9416C17.4892 11.73 17.0079 10.5681 16.1512 9.71132C15.2944 8.8546 14.1325 8.37329 12.9209 8.37329Z" fill="white" fill-opacity="0.8"/>
<path fill-rule="evenodd" clip-rule="evenodd" d="M5.56943 0.406194C10.4555 -0.135398 15.3864 -0.135398 20.2724 0.406194C22.9417 0.70419 25.0938 2.80562 25.4072 5.48477C25.9867 10.4392 25.9867 15.4442 25.4072 20.3986C25.0938 23.0778 22.9417 25.1792 20.2738 25.4786C15.3873 26.0203 10.4559 26.0203 5.56943 25.4786C2.90012 25.1792 0.748088 23.0778 0.43463 20.4C-0.144877 15.4452 -0.144877 10.4396 0.43463 5.48477C0.748088 2.80562 2.90012 0.70419 5.56943 0.406194ZM19.9491 4.50785C19.5763 4.50785 19.2188 4.65595 18.9552 4.91956C18.6916 5.18316 18.5435 5.54069 18.5435 5.91349C18.5435 6.28629 18.6916 6.64382 18.9552 6.90743C19.2188 7.17104 19.5763 7.31913 19.9491 7.31913C20.3219 7.31913 20.6795 7.17104 20.9431 6.90743C21.2067 6.64382 21.3548 6.28629 21.3548 5.91349C21.3548 5.54069 21.2067 5.18316 20.9431 4.91956C20.6795 4.65595 20.3219 4.50785 19.9491 4.50785ZM6.24414 12.9417C6.24414 11.1709 6.94759 9.47263 8.19973 8.22049C9.45187 6.96835 11.1501 6.2649 12.9209 6.2649C14.6917 6.2649 16.39 6.96835 17.6421 8.22049C18.8943 9.47263 19.5977 11.1709 19.5977 12.9417C19.5977 14.7125 18.8943 16.4108 17.6421 17.6629C16.39 18.915 14.6917 19.6185 12.9209 19.6185C11.1501 19.6185 9.45187 18.915 8.19973 17.6629C6.94759 16.4108 6.24414 14.7125 6.24414 12.9417Z" fill="white" fill-opacity="0.8"/>
</svg>
