<?xml version="1.0" standalone="no"?>
<!DOCTYPE svg PUBLIC "-//W3C//DTD SVG 20010904//EN"
 "http://www.w3.org/TR/2001/REC-SVG-20010904/DTD/svg10.dtd">
<svg version="1.0" xmlns="http://www.w3.org/2000/svg"
 width="1382.000000pt" height="530.000000pt" viewBox="0 0 1382.000000 530.000000"
 preserveAspectRatio="xMidYMid meet">

<g transform="translate(0.000000,530.000000) scale(0.100000,-0.100000)"
fill="#000000" stroke="none">
<path d="M0 2650 l0 -2650 6910 0 6910 0 0 2650 0 2650 -6910 0 -6910 0 0
-2650z m13640 2420 c12 -18 13 -3929 2 -3948 -13 -19 -3182 -23 -3205 -3 -22
18 -22 84 -1 106 14 14 44 16 240 13 179 -2 225 0 229 10 8 21 6 2958 -2 2965
-7 7 -65 -159 -77 -223 -4 -19 -25 -87 -46 -150 -21 -63 -50 -158 -64 -210
-13 -52 -35 -126 -49 -165 -14 -38 -32 -95 -40 -125 -21 -73 -95 -315 -113
-365 -8 -23 -14 -47 -14 -56 0 -8 -20 -75 -44 -149 -24 -74 -51 -162 -60 -195
-9 -33 -37 -123 -61 -200 -24 -77 -59 -192 -79 -255 -19 -63 -39 -128 -45
-145 -6 -16 -18 -57 -27 -90 -9 -33 -36 -123 -59 -200 -24 -77 -54 -174 -66
-215 -12 -41 -35 -115 -50 -165 -16 -49 -34 -108 -40 -130 -14 -52 -24 -63
-65 -71 -38 -7 -84 16 -84 41 0 8 -20 74 -44 147 -24 73 -51 160 -61 193 -9
33 -34 116 -55 185 -21 69 -46 152 -55 185 -9 33 -29 98 -45 145 -15 47 -35
112 -45 145 -9 33 -37 123 -60 200 -39 125 -74 243 -88 300 -3 11 -17 52 -31
92 -15 39 -37 111 -50 160 -13 48 -44 156 -70 238 -26 83 -56 182 -67 220 -20
66 -44 141 -57 175 -3 8 -11 38 -17 65 -7 28 -27 95 -45 150 -18 55 -43 138
-56 185 -13 47 -29 99 -34 115 -6 17 -18 55 -26 85 -16 59 -34 87 -34 55 0
-11 0 -672 0 -1470 0 -797 0 -1456 0 -1462 0 -10 51 -13 223 -13 260 0 260 0
255 -75 l-3 -50 -60 -6 c-33 -4 -278 -6 -544 -5 -459 3 -484 4 -497 21 -18 25
-18 65 2 93 15 22 19 22 250 22 l234 0 0 1485 0 1485 -234 0 c-231 0 -235 0
-250 22 -21 29 -20 61 2 87 l17 21 565 -2 565 -3 17 -35 c19 -39 32 -79 84
-255 20 -66 56 -181 80 -256 24 -75 44 -143 44 -152 0 -8 16 -61 36 -118 34
-99 54 -166 75 -254 5 -22 13 -49 18 -60 14 -32 68 -203 89 -285 11 -41 36
-124 57 -185 20 -60 48 -153 61 -205 14 -52 36 -126 50 -164 13 -38 29 -85 34
-105 48 -193 63 -214 88 -126 6 22 33 112 61 200 27 88 57 189 66 225 10 36
28 94 41 130 13 36 33 101 45 145 12 44 41 139 64 210 23 72 47 148 53 170 6
22 31 105 56 185 24 80 50 165 56 190 7 25 32 106 57 180 24 74 51 162 58 195
7 33 32 113 54 178 23 64 41 125 41 134 0 9 10 27 22 40 l21 23 538 0 c596 0
569 3 569 -65 0 -63 -7 -65 -245 -65 -202 0 -215 -1 -225 -19 -16 -30 -14
-2913 2 -2929 9 -9 247 -12 1009 -12 549 0 1004 3 1013 6 15 6 16 177 16 1840
l0 1834 -22 5 c-13 3 -2979 4 -6593 3 l-6570 -3 -3 -155 c-2 -125 -6 -157 -19
-172 -18 -20 -67 -24 -107 -8 l-26 10 0 224 c0 221 0 225 22 240 20 15 667 16
6731 14 5950 -3 6709 -5 6717 -18z m-9830 -748 c106 -15 231 -46 284 -71 23
-10 66 -28 96 -41 167 -68 368 -285 430 -465 22 -63 50 -269 44 -320 -14 -123
-27 -201 -34 -210 -4 -5 -10 -23 -14 -40 -8 -34 -85 -172 -119 -212 -160 -192
-349 -297 -617 -343 -36 -6 -92 -16 -125 -22 -33 -5 -226 -13 -430 -17 l-370
-6 0 -665 0 -665 253 -5 c279 -6 272 -4 272 -70 0 -70 64 -65 -805 -65 -775 0
-787 0 -801 20 -16 21 -11 79 8 103 8 9 68 12 238 12 179 0 230 3 239 14 8 10
10 402 9 1472 l-3 1459 -1014 3 c-606 1 -1018 -2 -1025 -7 -8 -7 -10 -527 -6
-1913 l5 -1903 6579 -3 c4856 -1 6582 1 6592 9 11 9 14 59 14 234 0 123 3 230
6 239 8 20 103 23 122 4 16 -16 17 -580 2 -609 -11 -19 -97 -19 -6721 -19
-4606 0 -6716 3 -6730 10 -19 11 -19 44 -19 2045 0 1118 3 2041 6 2050 6 14
152 15 1778 12 1291 -3 1794 -7 1856 -15z m2904 -24 c6 -26 6 -46 -2 -63 l-12
-25 -249 0 c-237 0 -251 -1 -261 -19 -16 -30 -14 -2923 2 -2939 9 -9 122 -12
448 -12 434 0 531 6 625 36 60 20 181 110 240 179 69 80 137 209 160 300 7 28
27 88 44 135 17 47 38 118 46 159 22 104 27 111 79 111 24 0 48 -6 54 -12 10
-14 -7 -357 -27 -523 -11 -86 -41 -433 -41 -465 0 -9 -9 -26 -20 -38 l-21 -22
-1317 1 c-1100 2 -1321 4 -1339 16 -18 10 -23 23 -23 53 0 70 3 71 257 70 124
-1 230 3 234 7 5 5 8 650 7 1484 l-3 1474 -235 3 c-260 2 -260 2 -260 68 0 68
-53 64 818 62 l787 -3 9 -37z"/>
<path d="M2957 4204 c-4 -4 -7 -337 -7 -740 0 -715 0 -734 19 -744 43 -22 543
-3 661 26 101 25 170 62 229 123 67 70 103 123 123 181 9 25 24 65 33 90 43
116 56 457 25 625 -26 136 -105 277 -189 339 -76 56 -127 74 -246 87 -123 14
-637 23 -648 13z"/>
</g>
</svg>
