<svg width="6" height="3" viewBox="0 0 6 3" fill="none" xmlns="http://www.w3.org/2000/svg">
<path d="M0.928977 2.07955C0.683712 2.07955 0.473248 1.99171 0.297585 1.81605C0.121922 1.64039 0.034091 1.42992 0.034091 1.18466C0.034091 0.939394 0.121922 0.72893 0.297585 0.553267C0.473248 0.377604 0.683712 0.289773 0.928977 0.289773C1.17424 0.289773 1.38471 0.377604 1.56037 0.553267C1.73603 0.72893 1.82386 0.939394 1.82386 1.18466C1.82386 1.34706 1.78243 1.49621 1.69957 1.6321C1.62003 1.76799 1.51231 1.87737 1.37642 1.96023C1.24384 2.03977 1.0947 2.07955 0.928977 2.07955ZM0.928977 2.07955C0.683712 2.07955 0.473248 1.99171 0.297585 1.81605C0.121922 1.64039 0.034091 1.42992 0.034091 1.18466C0.034091 0.939394 0.121922 0.72893 0.297585 0.553267C0.473248 0.377604 0.683712 0.289773 0.928977 0.289773C1.17424 0.289773 1.38471 0.377604 1.56037 0.553267C1.73603 0.72893 1.82386 0.939394 1.82386 1.18466C1.82386 1.34706 1.78243 1.49621 1.69957 1.6321C1.62003 1.76799 1.51231 1.87737 1.37642 1.96023C1.24384 2.03977 1.0947 2.07955 0.928977 2.07955ZM4.78445 2.07955C4.53918 2.07955 4.32872 1.99171 4.15305 1.81605C3.97739 1.64039 3.88956 1.42992 3.88956 1.18466C3.88956 0.939394 3.97739 0.72893 4.15305 0.553267C4.32872 0.377604 4.53918 0.289773 4.78445 0.289773C5.02971 0.289773 5.24018 0.377604 5.41584 0.553267C5.5915 0.72893 5.67933 0.939394 5.67933 1.18466C5.67933 1.34706 5.6379 1.49621 5.55504 1.6321C5.4755 1.76799 5.36778 1.87737 5.23189 1.96023C5.09931 2.03977 4.95017 2.07955 4.78445 2.07955Z" fill="black" fill-opacity="0.3"/>
</svg>
