<svg width="28" height="17" viewBox="0 0 28 17" fill="none" xmlns="http://www.w3.org/2000/svg">
<path d="M27.358 1.15124C27.5536 0.487061 27.358 0 26.433 0H23.3687C22.589 0 22.2327 0.421358 22.037 0.884138C22.037 0.884138 20.479 4.76777 18.2713 7.28592C17.5586 8.01865 17.2331 8.25004 16.8446 8.25004C16.6504 8.25004 16.3681 8.01865 16.3681 7.35448V1.15124C16.3681 0.354226 16.1432 0 15.4934 0H10.6783C10.192 0 9.89857 0.36851 9.89857 0.719879C9.89857 1.47404 11.0025 1.64829 11.1156 3.77365V8.38431C11.1156 9.39414 10.9382 9.57839 10.5469 9.57839C9.50872 9.57839 6.98238 5.68047 5.48306 1.21837C5.19102 0.35137 4.89619 0.00142891 4.11369 0.00142891H1.05078C0.174664 0.00142891 0 0.422787 0 0.885566C0 1.71685 1.0382 5.83045 4.8361 11.271C7.36804 14.9861 10.9326 17 14.1799 17C16.1264 17 16.3667 16.5529 16.3667 15.7816V12.9735C16.3667 12.0794 16.5526 11.8994 17.1688 11.8994C17.6215 11.8994 18.4012 12.1337 20.2191 13.9234C22.2955 16.0459 22.6393 16.9986 23.806 16.9986H26.869C27.7437 16.9986 28.181 16.5515 27.9295 15.6688C27.6542 14.7904 26.6621 13.512 25.3459 11.9994C24.6305 11.1367 23.5615 10.2083 23.2359 9.74408C22.7818 9.14561 22.9132 8.88137 23.2359 8.35003C23.2373 8.35145 26.9696 2.97807 27.358 1.15124Z" fill="white" fill-opacity="0.8"/>
</svg>
