<svg width="30" height="30" viewBox="0 0 30 30" fill="none" xmlns="http://www.w3.org/2000/svg">
<path d="M27.6677 6.95061C23.3364 -0.0028439 14.4667 -2.06312 7.60719 2.25059C0.913462 6.5643 -1.24179 15.9643 3.08944 22.8963L3.44174 23.4543L1.99109 29.0772L7.42068 27.5749L7.95949 27.9397C10.3013 29.2489 12.8503 30 15.3785 30C18.0933 30 20.8081 29.2489 23.1499 27.7466C29.8436 23.2397 31.8331 14.0328 27.6677 6.90768V6.95061ZM23.8752 21.4155C23.1499 22.5315 22.2381 23.2826 20.9739 23.4758C20.2486 23.4758 19.3368 23.8406 15.7308 22.3598C12.6638 20.8575 10.1147 18.4109 8.31179 15.5995C7.23417 14.2904 6.67463 12.5949 6.50884 10.8995C6.50884 9.39719 7.04765 8.08805 7.95949 7.14376C8.31179 6.77892 8.68482 6.58576 9.03712 6.58576H9.94896C10.3013 6.58576 10.6743 6.58576 10.8608 7.33691C11.2131 8.2812 12.1249 10.5346 12.1249 10.7278C12.3115 10.9209 12.2286 12.3588 11.3996 13.1744C10.9437 13.7109 10.8608 13.7324 11.0473 14.1187C11.7726 15.2347 12.6845 16.3721 13.5756 17.3164C14.6532 18.2607 15.7516 19.0118 17.0157 19.5698C17.368 19.763 17.741 19.763 17.9276 19.3767C18.1141 19.0118 19.0052 18.0675 19.3782 17.6812C19.7305 17.3164 19.917 17.3164 20.29 17.4881L23.1913 18.9904C23.5437 19.1835 23.9167 19.3552 24.1032 19.5484C24.2897 20.1064 24.2897 20.8575 23.9167 21.4155H23.8752Z" fill="white" fill-opacity="0.8"/>
</svg>
