<svg width="35" height="24" viewBox="0 0 35 24" fill="none" xmlns="http://www.w3.org/2000/svg">
<path d="M17.9512 0H18.1404C19.8872 0.00640626 28.7384 0.0704693 31.1249 0.715366C31.8464 0.912185 32.5038 1.29582 33.0315 1.82794C33.5592 2.36005 33.9387 3.02201 34.132 3.74766C34.3466 4.55912 34.4975 5.63324 34.5995 6.74153L34.6208 6.96361L34.6675 7.51882L34.6845 7.7409C34.8227 9.69268 34.8397 11.5206 34.8418 11.9199V12.0801C34.8397 12.4944 34.8205 14.4461 34.6675 16.479L34.6505 16.7033L34.6314 16.9254C34.5252 18.1468 34.3679 19.3597 34.132 20.2523C33.9393 20.9783 33.56 21.6406 33.0322 22.1728C32.5044 22.705 31.8467 23.0884 31.1249 23.2846C28.6598 23.9509 19.2901 23.9979 17.9916 24H17.6898C17.0332 24 14.3173 23.9872 11.4696 23.889L11.1083 23.8761L10.9234 23.8676L10.56 23.8527L10.1966 23.8377C7.83773 23.7331 5.59147 23.5644 4.55653 23.2825C3.83502 23.0865 3.17746 22.7033 2.6497 22.1715C2.12194 21.6397 1.74253 20.9779 1.54947 20.2523C1.31358 19.3619 1.15632 18.1468 1.05006 16.9254L1.03306 16.7011L1.01606 16.479C0.911177 15.0321 0.85306 13.5821 0.841797 12.1313L0.841797 11.8687C0.846047 11.4096 0.863048 9.82294 0.977805 8.07189L0.992681 7.85194L0.999057 7.7409L1.01606 7.51882L1.06281 6.96361L1.08406 6.74153C1.18607 5.63324 1.33695 4.55699 1.55159 3.74766C1.74433 3.02172 2.1236 2.35945 2.65138 1.82724C3.17915 1.29503 3.83689 0.911595 4.55865 0.715366C5.59359 0.437762 7.83986 0.266928 10.1988 0.160156L10.56 0.145209L10.9256 0.132396L11.1083 0.12599L11.4717 0.111042C13.4942 0.045644 15.5176 0.00933791 17.5411 0.00213552H17.9512V0ZM14.4426 6.8547V17.1432L23.2768 12.0011L14.4426 6.8547Z" fill="white" fill-opacity="0.8"/>
</svg>
